<?xml version="1.0" encoding="UTF-8"?>
<svg width="13px" height="18px" viewBox="0 0 13 18" version="1.1" xmlns="http://www.w3.org/2000/svg" xmlns:xlink="http://www.w3.org/1999/xlink">
    <!-- Generator: Sketch 54 (76480) - https://sketchapp.com -->
    <title>Slice 1</title>
    <desc>Created with Sketch.</desc>
    <g id="Page-1" stroke="none" stroke-width="1" fill="none" fill-rule="evenodd">
        <g id="bookmark" fill="#000000" fill-rule="nonzero">
            <path d="M13,2 C13,0.9 12.1,0 11,0 L2,0 C0.9,0 0,0.9 0,2 L0,16.66 L0.012,16.66 C0.022,16.763 0.057,16.864 0.132,16.945 C0.318755808,17.148061 0.634691206,17.161486 0.838,16.975 L6.5,12.85 L12.162,16.976 C12.3671654,17.1594293 12.681087,17.1461276 12.87,16.946 C12.9383866,16.8658102 12.9796859,16.7660619 12.988,16.661 L13,16.661 L13,2 Z M6.162,11.97 L1,15.636 L1,2 C1,1.45 1.45,1 2,1 L11,1 C11.55,1 12,1.45 12,2 L12,15.637 L6.838,11.969 C6.64874033,11.7886825 6.35125967,11.7886825 6.162,11.969 L6.162,11.97 Z" id="Shape"></path>
        </g>
    </g>
</svg>