<?xml version="1.0" encoding="UTF-8"?>
<svg width="11px" height="11px" viewBox="0 0 11 11" version="1.1" xmlns="http://www.w3.org/2000/svg" xmlns:xlink="http://www.w3.org/1999/xlink">
    <!-- Generator: Sketch 54 (76480) - https://sketchapp.com -->
    <title>Slice 1</title>
    <desc>Created with Sketch.</desc>
    <g id="Page-1" stroke="none" stroke-width="1" fill="none" fill-rule="evenodd">
        <g id="star" fill="#000000" fill-rule="nonzero">
            <path d="M5.438,0.324 C5.472,0.225 5.528,0.225 5.561,0.324 L6.761,3.854 C6.80130953,3.9640541 6.90390169,4.03902529 7.021,4.044 L10.905,4.044 C11.015,4.044 11.032,4.093 10.943,4.155 L7.8,6.327 C7.70986065,6.39409415 7.67047775,6.50985603 7.701,6.618 L8.901,10.148 C8.935,10.248 8.89,10.279 8.803,10.217 L5.661,8.037 C5.56303115,7.97608146 5.43896885,7.97608146 5.341,8.037 L2.196,10.219 C2.109,10.279 2.064,10.249 2.097,10.151 L3.297,6.621 C3.32819645,6.51275862 3.28917998,6.39650546 3.199,6.329 L0.056,4.146 C-0.031,4.086 -0.015,4.034 0.094,4.034 L3.978,4.034 C4.09509831,4.02902529 4.19769047,3.9540541 4.238,3.844 L5.438,0.324 Z" id="Path"></path>
        </g>
    </g>
</svg>